<?xml version="1.0" standalone="no"?><!DOCTYPE svg PUBLIC "-//W3C//DTD SVG 1.1//EN" "http://www.w3.org/Graphics/SVG/1.1/DTD/svg11.dtd"><svg t="1664700614647" class="icon" viewBox="0 0 1024 1024" version="1.1" xmlns="http://www.w3.org/2000/svg" p-id="5979" xmlns:xlink="http://www.w3.org/1999/xlink" width="200" height="200"><path d="M339.879 498.423h-18.112c-7.515 0-13.592 6.077-13.592 13.577s6.077 13.577 13.592 13.577h18.112c7.5 0 13.592-6.077 13.592-13.577s-6.092-13.577-13.592-13.577zM720.213 321.122c17.549 0 31.837-14.289 31.837-31.838 0-5.751-1.57-11.413-4.535-16.363l-61.985-103.28c-5.692-9.545-16.156-15.445-27.272-15.445h-2.639c-11.116 0-21.581 5.899-27.302 15.445l-61.956 103.28a31.871 31.871 0 0 0-4.536 16.363c0 17.549 14.259 31.838 31.809 31.838h126.579z m-131.205-31.838c0-0.83 0.237-1.66 0.652-2.371l61.956-103.31a4.742 4.742 0 0 1 4.002-2.253h2.639c1.601 0 3.142 0.859 3.972 2.282l61.956 103.28c0.475 0.711 0.682 1.541 0.682 2.371a4.661 4.661 0 0 1-4.653 4.654h-126.58c-2.551 0.002-4.626-2.073-4.626-4.653zM267.415 498.423h-18.127c-7.5 0-13.577 6.077-13.577 13.577s6.077 13.577 13.577 13.577h18.127c7.5 0 13.577-6.077 13.577-13.577s-6.077-13.577-13.577-13.577zM412.344 525.577c7.515 0 13.592-6.077 13.592-13.577s-6.077-13.577-13.592-13.577h-18.112c-7.515 0-13.592 6.077-13.592 13.577s6.077 13.577 13.592 13.577h18.112zM398.768 357.999v-36.225c0-7.5-6.092-13.607-13.592-13.607-7.515 0-13.592 6.107-13.592 13.607v36.225c0 7.5 6.077 13.607 13.592 13.607 7.5 0 13.592-6.107 13.592-13.607z" p-id="5980"></path><path d="M453.105 403.296V276.478c0-7.5-6.077-13.577-13.577-13.577h-54.352c-7.515 0-13.592 6.077-13.592 13.577s6.077 13.577 13.592 13.577h40.76v99.663H235.71v-99.663h95.113c7.5 0 13.592-6.077 13.592-13.577s-6.092-13.577-13.592-13.577H222.119c-7.515 0-13.592 6.077-13.592 13.577v126.817c0 7.5 6.092 13.577 13.592 13.577h217.409c7.5 0 13.577-6.076 13.577-13.576z" p-id="5981"></path><path d="M330.823 308.168c-7.515 0-13.592 6.107-13.592 13.607V358c0 7.5 6.077 13.607 13.592 13.607 7.5 0 13.592-6.107 13.592-13.607v-36.225c0-7.5-6.092-13.607-13.592-13.607zM262.879 321.775V358c0 7.5 6.092 13.607 13.591 13.607 7.5 0 13.592-6.107 13.592-13.607v-36.225c0-7.5-6.092-13.607-13.592-13.607-7.499 0-13.591 6.107-13.591 13.607zM892.444 915.1h-22.648V131.549c0-27.48-22.352-49.832-49.802-49.832H493.88c-27.48 0-49.832 22.352-49.832 49.832v36.225c0 7.5 6.092 13.577 13.592 13.577 7.515 0 13.592-6.077 13.592-13.577v-36.225c0-12.51 10.153-22.648 22.648-22.648h326.114c12.48 0 22.648 10.138 22.648 22.648v240.058H548.218c-7.5 0-13.577 6.077-13.577 13.577s6.077 13.577 13.577 13.577h294.425v335.186h-330.65c-7.5 0-13.592 6.076-13.592 13.576s6.092 13.577 13.592 13.577h330.65v154h-77.016c-7.5 0-13.577 6.077-13.577 13.606 0 7.5 6.077 13.577 13.577 13.577h126.817c7.529 0 13.606-6.077 13.606-13.577-0.029-7.529-6.076-13.606-13.606-13.606z" p-id="5982"></path><path d="M747.515 543.719c27.48 0 49.832-22.352 49.832-49.831 0-27.48-22.352-49.832-49.832-49.832-27.479 0-49.832 22.352-49.832 49.832 0 27.479 22.352 49.831 49.832 49.831z m0-72.479c12.48 0 22.648 10.168 22.648 22.648s-10.168 22.647-22.648 22.647-22.648-10.167-22.648-22.647c-0.001-12.481 10.167-22.648 22.648-22.648zM711.26 915.1H471.232V620.705c0-7.5-6.077-13.577-13.592-13.577-7.5 0-13.592 6.077-13.592 13.577v58.873h-67.93a4.526 4.526 0 0 1-4.535-4.536v-41.086c15.341-2.194 27.168-15.415 27.168-31.364v-22.647h77c17.49 0 31.705-14.229 31.705-31.72V240.253c0-17.49-14.214-31.719-31.705-31.719H185.879c-17.475 0-31.705 14.229-31.705 31.719v307.972c0 17.49 14.229 31.72 31.705 31.72h77v22.647c0 15.949 11.828 29.17 27.183 31.364v41.086c0 47.46 38.597 86.057 86.057 86.057h67.93V915.1H131.526c-7.5 0-13.577 6.077-13.577 13.606 0 7.5 6.077 13.577 13.577 13.577H711.26c7.53 0 13.606-6.077 13.606-13.577A13.587 13.587 0 0 0 711.26 915.1zM185.879 552.761a4.523 4.523 0 0 1-4.521-4.536V471.24h22.648c7.5 0 13.577-6.077 13.577-13.577 0-7.53-6.077-13.607-13.577-13.607h-22.648V240.253a4.523 4.523 0 0 1 4.521-4.535h289.874a4.526 4.526 0 0 1 4.536 4.535v203.803h-221.93c-7.515 0-13.592 6.077-13.592 13.607 0 7.5 6.077 13.577 13.592 13.577h221.93v76.985a4.526 4.526 0 0 1-4.536 4.536H185.879z m108.704 54.367c-2.49 0-4.521-2.046-4.521-4.536v-22.647h81.521v22.647a4.546 4.546 0 0 1-4.536 4.536h-72.464z m149.466 126.818h-67.93c-32.475 0-58.888-26.413-58.888-58.903v-40.761h27.184v40.761c0 17.49 14.214 31.72 31.689 31.72h67.944v27.183h0.001zM656.952 274.522c7.471 0 13.577-6.077 13.577-13.577v-23.3c0-7.5-6.106-13.577-13.577-13.577-7.529 0-13.606 6.077-13.606 13.577v23.3c0 7.5 6.077 13.577 13.606 13.577z" p-id="5983"></path><path d="M638.81 543.719c17.49 0 31.72-14.229 31.72-31.719v-36.225c0-17.49-14.229-31.719-31.72-31.719h-54.367c-17.46 0-31.689 14.229-31.689 31.719V512c0 17.49 14.229 31.719 31.689 31.719h54.367zM579.937 512v-36.225c0-2.52 2.017-4.536 4.506-4.536h54.367a4.536 4.536 0 0 1 4.536 4.536V512c0 2.49-2.046 4.535-4.536 4.535h-54.367c-2.49 0-4.506-2.045-4.506-4.535zM516.528 620.705v36.225c0 17.49 14.199 31.719 31.689 31.719h90.592c17.49 0 31.72-14.229 31.72-31.719v-36.225c0-17.49-14.229-31.72-31.72-31.72h-90.592c-17.489 0.001-31.689 14.23-31.689 31.72z m126.818 0v36.225a4.535 4.535 0 0 1-4.536 4.535h-90.592c-2.49 0-4.506-2.016-4.506-4.535v-36.225c0-2.49 2.016-4.536 4.506-4.536h90.592c2.49 0 4.536 2.046 4.536 4.536zM729.402 851.692h-144.96c-7.47 0-13.576 6.076-13.576 13.606 0 7.5 6.106 13.577 13.576 13.577h144.96c7.5 0 13.577-6.077 13.577-13.577 0-7.53-6.077-13.606-13.577-13.606zM729.402 797.354h-144.96c-7.47 0-13.576 6.077-13.576 13.577s6.106 13.577 13.576 13.577h144.96c7.5 0 13.577-6.077 13.577-13.577s-6.077-13.577-13.577-13.577zM747.515 688.649c27.48 0 49.832-22.352 49.832-49.831 0-27.48-22.352-49.832-49.832-49.832-27.479 0-49.832 22.352-49.832 49.832 0 27.479 22.352 49.831 49.832 49.831z m0-72.48c12.48 0 22.648 10.168 22.648 22.648 0 12.479-10.168 22.647-22.648 22.647s-22.648-10.168-22.648-22.647c-0.001-12.48 10.167-22.648 22.648-22.648z" p-id="5984"></path></svg>