<?xml version="1.0" standalone="no"?><!DOCTYPE svg PUBLIC "-//W3C//DTD SVG 1.1//EN" "http://www.w3.org/Graphics/SVG/1.1/DTD/svg11.dtd"><svg t="1664700676314" class="icon" viewBox="0 0 1024 1024" version="1.1" xmlns="http://www.w3.org/2000/svg" p-id="8530" xmlns:xlink="http://www.w3.org/1999/xlink" width="200" height="200"><path d="M331.1 256.5c16.8-17.3 25.2-40.2 25.2-68.7 0-60-30-90-89.9-90h-58.3v184.7h58.1c26.5-0.1 48.1-8.7 64.9-26z m-87-6.3V129.9h19.5c16.3 0 29.5 5.1 39.7 15.4 10.2 10.3 15.2 24.6 15.2 43 0 19-4.9 34.1-14.6 45.2-9.7 11.1-23.1 16.7-40.2 16.7h-19.6z m371.7 339.4h-69.5v-79.8c35.3-9.9 61.4-42.8 61.4-81.5 0-46.5-37.6-84.6-83.6-84.6s-83.6 38.1-83.6 84.6c0 38.1 25.3 70.5 59.7 81v80.2H433c-13.9-36.2-41.9-82.1-67.5-118.3 7.5-12.6 11.8-27.3 11.8-43 0-46.5-38-84.6-84.5-84.6s-84.5 38.1-84.5 84.6c0 46.5 38 84.6 84.5 84.6 13 0 25.4-3 36.4-8.3 17.5 28.4 35.4 61.5 47.8 85h-61.1L422 697.4l78.3-90.1v120.6H408L530.4 851l108.1-123.1h-92.2v-107l75.4 76.5 93.7-107.7h-44c12.2-23.5 29.9-56.6 47.3-85 10.9 5.3 23.1 8.3 36 8.3 46 0 83.6-38.1 83.6-84.6 0-46.5-37.6-84.6-83.6-84.6S671 381.9 671 428.4c0 15.7 4.3 30.4 11.7 43-25.4 36.1-53.1 82.1-66.9 118.2z m-323-122.8c-21.1 0-38.4-17.3-38.4-38.4s17.3-38.4 38.4-38.4c21.1 0 38.4 17.3 38.4 38.4 0 21.1-17.3 38.4-38.4 38.4z m231.4 0c-20.9 0-38-17.3-38-38.4 0-21.1 17.1-38.4 38-38.4s38 17.3 38 38.4-17.1 38.4-38 38.4z m230.4-76.9c20.9 0 38 17.3 38 38.4s-17.1 38.4-38 38.4-38-17.3-38-38.4c0-21.1 17.1-38.4 38-38.4z m99 92.2V728c0 84.2-66.6 150.3-149.8 150.3H327.3c-83.3 0-147-64.4-147-148.6V482h-49v247.7c0 109 88.2 198.1 195.9 198.1h376.5c107.8 0 195.9-89.2 195.9-198.1V482l-46 0.1z m-435.7-242h61.3l12.6 42.3H531L470.5 97.8h-42.3l-61.8 184.7h39l12.5-42.4z m27.1-94.9c1.5-5 2.5-10.2 2.9-15.6h1c0.5 6.7 1.4 12 2.6 16.1l19.2 64h-45l19.3-64.5z m139.7 137.2h36.1V129.9h48.1V97.8H536.7V130h48v152.4z m140.5-42.3h61.3l12.6 42.3h39.2L777.8 97.8h-42.3l-61.8 184.7h39l12.5-42.4z m27.1-94.9c1.5-5 2.5-10.2 2.9-15.6h1c0.5 6.7 1.4 12 2.6 16.1l19.2 64h-45l19.3-64.5z" p-id="8531"></path></svg>